<mxfile host="app.diagrams.net" modified="2024-04-15T06:48:48.493Z" agent="Mozilla/5.0 (Windows NT 10.0; Win64; x64; rv:124.0) Gecko/20100101 Firefox/124.0" version="24.2.5" etag="HpWZ-kDV0yw7g4Ri_1A4" type="device">
  <diagram id="FRR8UHLaN7Rjwr9w2x2C" name="Page-1">
    <mxGraphModel dx="1434" dy="820" grid="1" gridSize="10" guides="1" tooltips="1" connect="1" arrows="1" fold="1" page="1" pageScale="1" pageWidth="850" pageHeight="1100" math="0" shadow="0">
      <root>
        <mxCell id="0" />
        <mxCell id="1" parent="0" />
        <mxCell id="2" value="Atzimes" style="swimlane;fontStyle=0;childLayout=stackLayout;horizontal=1;startSize=26;fillColor=none;horizontalStack=0;resizeParent=1;resizeParentMax=0;resizeLast=0;collapsible=1;marginBottom=0;" parent="1" vertex="1">
          <mxGeometry x="40" y="80" width="140" height="130" as="geometry" />
        </mxCell>
        <mxCell id="3" value="+ ID: integer" style="text;strokeColor=none;fillColor=none;align=left;verticalAlign=top;spacingLeft=4;spacingRight=4;overflow=hidden;rotatable=0;points=[[0,0.5],[1,0.5]];portConstraint=eastwest;" parent="2" vertex="1">
          <mxGeometry y="26" width="140" height="26" as="geometry" />
        </mxCell>
        <mxCell id="4" value="+ Prieksmets: string" style="text;strokeColor=none;fillColor=none;align=left;verticalAlign=top;spacingLeft=4;spacingRight=4;overflow=hidden;rotatable=0;points=[[0,0.5],[1,0.5]];portConstraint=eastwest;" parent="2" vertex="1">
          <mxGeometry y="52" width="140" height="26" as="geometry" />
        </mxCell>
        <mxCell id="6" value="+ Skolens: skolens.id" style="text;strokeColor=none;fillColor=none;align=left;verticalAlign=top;spacingLeft=4;spacingRight=4;overflow=hidden;rotatable=0;points=[[0,0.5],[1,0.5]];portConstraint=eastwest;" parent="2" vertex="1">
          <mxGeometry y="78" width="140" height="26" as="geometry" />
        </mxCell>
        <mxCell id="5" value="+ Atzime: integer" style="text;strokeColor=none;fillColor=none;align=left;verticalAlign=top;spacingLeft=4;spacingRight=4;overflow=hidden;rotatable=0;points=[[0,0.5],[1,0.5]];portConstraint=eastwest;" parent="2" vertex="1">
          <mxGeometry y="104" width="140" height="26" as="geometry" />
        </mxCell>
        <mxCell id="p3jll56z5A_B3MMIJtmH-10" value="Skolens" style="swimlane;fontStyle=0;childLayout=stackLayout;horizontal=1;startSize=26;fillColor=none;horizontalStack=0;resizeParent=1;resizeParentMax=0;resizeLast=0;collapsible=1;marginBottom=0;whiteSpace=wrap;html=1;" vertex="1" parent="1">
          <mxGeometry x="280" y="80" width="140" height="104" as="geometry" />
        </mxCell>
        <mxCell id="p3jll56z5A_B3MMIJtmH-11" value="+ ID: integer" style="text;strokeColor=none;fillColor=none;align=left;verticalAlign=top;spacingLeft=4;spacingRight=4;overflow=hidden;rotatable=0;points=[[0,0.5],[1,0.5]];portConstraint=eastwest;whiteSpace=wrap;html=1;" vertex="1" parent="p3jll56z5A_B3MMIJtmH-10">
          <mxGeometry y="26" width="140" height="26" as="geometry" />
        </mxCell>
        <mxCell id="p3jll56z5A_B3MMIJtmH-12" value="+ Vards: string" style="text;strokeColor=none;fillColor=none;align=left;verticalAlign=top;spacingLeft=4;spacingRight=4;overflow=hidden;rotatable=0;points=[[0,0.5],[1,0.5]];portConstraint=eastwest;whiteSpace=wrap;html=1;" vertex="1" parent="p3jll56z5A_B3MMIJtmH-10">
          <mxGeometry y="52" width="140" height="26" as="geometry" />
        </mxCell>
        <mxCell id="p3jll56z5A_B3MMIJtmH-13" value="+ field: type" style="text;strokeColor=none;fillColor=none;align=left;verticalAlign=top;spacingLeft=4;spacingRight=4;overflow=hidden;rotatable=0;points=[[0,0.5],[1,0.5]];portConstraint=eastwest;whiteSpace=wrap;html=1;" vertex="1" parent="p3jll56z5A_B3MMIJtmH-10">
          <mxGeometry y="78" width="140" height="26" as="geometry" />
        </mxCell>
        <mxCell id="p3jll56z5A_B3MMIJtmH-14" style="edgeStyle=orthogonalEdgeStyle;rounded=0;orthogonalLoop=1;jettySize=auto;html=1;exitX=1;exitY=0.5;exitDx=0;exitDy=0;entryX=0;entryY=0.5;entryDx=0;entryDy=0;" edge="1" parent="1" source="6" target="p3jll56z5A_B3MMIJtmH-11">
          <mxGeometry relative="1" as="geometry" />
        </mxCell>
        <mxCell id="p3jll56z5A_B3MMIJtmH-15" value="N" style="text;html=1;align=center;verticalAlign=middle;resizable=0;points=[];autosize=1;strokeColor=none;fillColor=none;" vertex="1" parent="1">
          <mxGeometry x="170" y="150" width="30" height="30" as="geometry" />
        </mxCell>
        <mxCell id="p3jll56z5A_B3MMIJtmH-16" value="1" style="text;html=1;align=center;verticalAlign=middle;resizable=0;points=[];autosize=1;strokeColor=none;fillColor=none;" vertex="1" parent="1">
          <mxGeometry x="250" y="90" width="30" height="30" as="geometry" />
        </mxCell>
        <mxCell id="p3jll56z5A_B3MMIJtmH-17" value="N:1 - Vairākam &amp;lt;x&amp;gt; ir &amp;lt;1&amp;gt; atbilstoša vērtība" style="text;html=1;align=center;verticalAlign=middle;resizable=0;points=[];autosize=1;strokeColor=none;fillColor=none;" vertex="1" parent="1">
          <mxGeometry x="480" y="70" width="260" height="30" as="geometry" />
        </mxCell>
        <mxCell id="p3jll56z5A_B3MMIJtmH-18" value="1:N - Vairākam &amp;lt;1&amp;gt; ir &amp;lt;N&amp;gt; atbilstoša vērtība" style="text;html=1;align=center;verticalAlign=middle;resizable=0;points=[];autosize=1;strokeColor=none;fillColor=none;" vertex="1" parent="1">
          <mxGeometry x="480" y="100" width="260" height="30" as="geometry" />
        </mxCell>
        <mxCell id="p3jll56z5A_B3MMIJtmH-19" value="1:1 - Vairākam &amp;lt;1&amp;gt; ir &amp;lt;1&amp;gt; atbilstoša vērtība" style="text;html=1;align=center;verticalAlign=middle;resizable=0;points=[];autosize=1;strokeColor=none;fillColor=none;" vertex="1" parent="1">
          <mxGeometry x="480" y="150" width="260" height="30" as="geometry" />
        </mxCell>
        <mxCell id="p3jll56z5A_B3MMIJtmH-20" value="N:N - Vairākām &amp;lt;N&amp;gt; ir &amp;lt;N&amp;gt; atbilstošas vērtība" style="text;html=1;align=center;verticalAlign=middle;resizable=0;points=[];autosize=1;strokeColor=none;fillColor=none;" vertex="1" parent="1">
          <mxGeometry x="475" y="180" width="270" height="30" as="geometry" />
        </mxCell>
        <mxCell id="p3jll56z5A_B3MMIJtmH-21" value="Pasniedzēji" style="swimlane;fontStyle=0;childLayout=stackLayout;horizontal=1;startSize=26;fillColor=none;horizontalStack=0;resizeParent=1;resizeParentMax=0;resizeLast=0;collapsible=1;marginBottom=0;whiteSpace=wrap;html=1;" vertex="1" parent="1">
          <mxGeometry x="40" y="280" width="140" height="78" as="geometry" />
        </mxCell>
        <mxCell id="p3jll56z5A_B3MMIJtmH-22" value="+ ID" style="text;strokeColor=none;fillColor=none;align=left;verticalAlign=top;spacingLeft=4;spacingRight=4;overflow=hidden;rotatable=0;points=[[0,0.5],[1,0.5]];portConstraint=eastwest;whiteSpace=wrap;html=1;" vertex="1" parent="p3jll56z5A_B3MMIJtmH-21">
          <mxGeometry y="26" width="140" height="26" as="geometry" />
        </mxCell>
        <mxCell id="p3jll56z5A_B3MMIJtmH-23" value="+ Nosaukums" style="text;strokeColor=none;fillColor=none;align=left;verticalAlign=top;spacingLeft=4;spacingRight=4;overflow=hidden;rotatable=0;points=[[0,0.5],[1,0.5]];portConstraint=eastwest;whiteSpace=wrap;html=1;" vertex="1" parent="p3jll56z5A_B3MMIJtmH-21">
          <mxGeometry y="52" width="140" height="26" as="geometry" />
        </mxCell>
        <mxCell id="p3jll56z5A_B3MMIJtmH-25" value="Priekšmeti" style="swimlane;fontStyle=0;childLayout=stackLayout;horizontal=1;startSize=26;fillColor=none;horizontalStack=0;resizeParent=1;resizeParentMax=0;resizeLast=0;collapsible=1;marginBottom=0;whiteSpace=wrap;html=1;" vertex="1" parent="1">
          <mxGeometry x="390" y="280" width="140" height="78" as="geometry" />
        </mxCell>
        <mxCell id="p3jll56z5A_B3MMIJtmH-26" value="+ ID" style="text;strokeColor=none;fillColor=none;align=left;verticalAlign=top;spacingLeft=4;spacingRight=4;overflow=hidden;rotatable=0;points=[[0,0.5],[1,0.5]];portConstraint=eastwest;whiteSpace=wrap;html=1;" vertex="1" parent="p3jll56z5A_B3MMIJtmH-25">
          <mxGeometry y="26" width="140" height="26" as="geometry" />
        </mxCell>
        <mxCell id="p3jll56z5A_B3MMIJtmH-27" value="+ Nosaukums" style="text;strokeColor=none;fillColor=none;align=left;verticalAlign=top;spacingLeft=4;spacingRight=4;overflow=hidden;rotatable=0;points=[[0,0.5],[1,0.5]];portConstraint=eastwest;whiteSpace=wrap;html=1;" vertex="1" parent="p3jll56z5A_B3MMIJtmH-25">
          <mxGeometry y="52" width="140" height="26" as="geometry" />
        </mxCell>
        <mxCell id="p3jll56z5A_B3MMIJtmH-34" style="edgeStyle=orthogonalEdgeStyle;rounded=0;orthogonalLoop=1;jettySize=auto;html=1;exitX=1;exitY=0.5;exitDx=0;exitDy=0;entryX=0;entryY=0.5;entryDx=0;entryDy=0;" edge="1" parent="1" source="p3jll56z5A_B3MMIJtmH-29" target="p3jll56z5A_B3MMIJtmH-26">
          <mxGeometry relative="1" as="geometry" />
        </mxCell>
        <mxCell id="p3jll56z5A_B3MMIJtmH-37" value="N" style="edgeLabel;html=1;align=center;verticalAlign=middle;resizable=0;points=[];" vertex="1" connectable="0" parent="p3jll56z5A_B3MMIJtmH-34">
          <mxGeometry x="-0.8556" y="-9" relative="1" as="geometry">
            <mxPoint as="offset" />
          </mxGeometry>
        </mxCell>
        <mxCell id="p3jll56z5A_B3MMIJtmH-29" value="PasniedzejuPrieksmeti" style="swimlane;fontStyle=0;childLayout=stackLayout;horizontal=1;startSize=26;fillColor=none;horizontalStack=0;resizeParent=1;resizeParentMax=0;resizeLast=0;collapsible=1;marginBottom=0;whiteSpace=wrap;html=1;" vertex="1" parent="1">
          <mxGeometry x="210" y="420" width="140" height="78" as="geometry" />
        </mxCell>
        <mxCell id="p3jll56z5A_B3MMIJtmH-30" value="+ pasniedzejs.id" style="text;strokeColor=none;fillColor=none;align=left;verticalAlign=top;spacingLeft=4;spacingRight=4;overflow=hidden;rotatable=0;points=[[0,0.5],[1,0.5]];portConstraint=eastwest;whiteSpace=wrap;html=1;" vertex="1" parent="p3jll56z5A_B3MMIJtmH-29">
          <mxGeometry y="26" width="140" height="26" as="geometry" />
        </mxCell>
        <mxCell id="p3jll56z5A_B3MMIJtmH-31" value="+ prieksmets.id" style="text;strokeColor=none;fillColor=none;align=left;verticalAlign=top;spacingLeft=4;spacingRight=4;overflow=hidden;rotatable=0;points=[[0,0.5],[1,0.5]];portConstraint=eastwest;whiteSpace=wrap;html=1;" vertex="1" parent="p3jll56z5A_B3MMIJtmH-29">
          <mxGeometry y="52" width="140" height="26" as="geometry" />
        </mxCell>
        <mxCell id="p3jll56z5A_B3MMIJtmH-33" style="edgeStyle=orthogonalEdgeStyle;rounded=0;orthogonalLoop=1;jettySize=auto;html=1;exitX=0;exitY=0.5;exitDx=0;exitDy=0;entryX=1;entryY=0.5;entryDx=0;entryDy=0;" edge="1" parent="1" source="p3jll56z5A_B3MMIJtmH-30" target="p3jll56z5A_B3MMIJtmH-22">
          <mxGeometry relative="1" as="geometry" />
        </mxCell>
        <mxCell id="p3jll56z5A_B3MMIJtmH-35" value="1" style="text;html=1;align=center;verticalAlign=middle;resizable=0;points=[];autosize=1;strokeColor=none;fillColor=none;" vertex="1" parent="1">
          <mxGeometry x="175" y="288" width="30" height="30" as="geometry" />
        </mxCell>
        <mxCell id="p3jll56z5A_B3MMIJtmH-36" value="N" style="text;html=1;align=center;verticalAlign=middle;resizable=0;points=[];autosize=1;strokeColor=none;fillColor=none;" vertex="1" parent="1">
          <mxGeometry x="180" y="458" width="30" height="30" as="geometry" />
        </mxCell>
        <mxCell id="p3jll56z5A_B3MMIJtmH-38" value="1" style="text;html=1;align=center;verticalAlign=middle;resizable=0;points=[];autosize=1;strokeColor=none;fillColor=none;" vertex="1" parent="1">
          <mxGeometry x="365" y="288" width="30" height="30" as="geometry" />
        </mxCell>
        <mxCell id="p3jll56z5A_B3MMIJtmH-39" value="N:N piemērs" style="text;html=1;align=center;verticalAlign=middle;resizable=0;points=[];autosize=1;strokeColor=none;fillColor=none;" vertex="1" parent="1">
          <mxGeometry x="235" y="270" width="90" height="30" as="geometry" />
        </mxCell>
      </root>
    </mxGraphModel>
  </diagram>
</mxfile>
